{
	"asset":{
		"copyright":"blacksheep",
		"generator":"Khronos glTF Blender I/O v4.3.47",
		"version":"2.0"
	},
	"extensionsUsed":[
		"KHR_materials_specular"
	],
	"scene":0,
	"scenes":[
		{
			"name":"Scene",
			"nodes":[
				0,
				1
			]
		}
	],
	"nodes":[
		{
			"mesh":0,
			"name":"Untitled",
			"rotation":[
				0.7071068286895752,
				0,
				0,
				0.7071068286895752
			]
		},
		{
			"mesh":1,
			"name":"Plane",
			"scale":[
				9.533122062683105,
				9.533122062683105,
				9.533122062683105
			],
			"translation":[
				6.83582878112793,
				0,
				-4.051947593688965
			]
		}
	],
	"materials":[
		{
			"doubleSided":true,
			"extensions":{
				"KHR_materials_specular":{
					"specularFactor":0
				}
			},
			"name":"palette",
			"pbrMetallicRoughness":{
				"baseColorTexture":{
					"index":0
				},
				"metallicFactor":0
			}
		},
		{
			"alphaMode":"BLEND",
			"doubleSided":true,
			"name":"Material.001",
			"pbrMetallicRoughness":{
				"baseColorTexture":{
					"index":1
				},
				"metallicFactor":0,
				"roughnessFactor":0.5
			}
		}
	],
	"meshes":[
		{
			"name":"Untitled",
			"primitives":[
				{
					"attributes":{
						"POSITION":0,
						"NORMAL":1,
						"TEXCOORD_0":2
					},
					"indices":3,
					"material":0
				}
			]
		},
		{
			"name":"Plane",
			"primitives":[
				{
					"attributes":{
						"POSITION":4,
						"NORMAL":5,
						"TEXCOORD_0":6
					},
					"indices":7,
					"material":1
				}
			]
		}
	],
	"textures":[
		{
			"sampler":0,
			"source":0
		},
		{
			"sampler":0,
			"source":1
		}
	],
	"images":[
		{
			"mimeType":"image/png",
			"name":"sheep-bake",
			"uri":"sheep-bake.png"
		},
		{
			"mimeType":"image/png",
			"name":"plane-tex",
			"uri":"plane-tex.png"
		}
	],
	"accessors":[
		{
			"bufferView":0,
			"componentType":5126,
			"count":5962,
			"max":[
				4,
				2.5,
				-0.10000000149011612
			],
			"min":[
				-0.10000000149011612,
				-1.7999999523162842,
				-4
			],
			"type":"VEC3"
		},
		{
			"bufferView":1,
			"componentType":5126,
			"count":5962,
			"type":"VEC3"
		},
		{
			"bufferView":2,
			"componentType":5126,
			"count":5962,
			"type":"VEC2"
		},
		{
			"bufferView":3,
			"componentType":5123,
			"count":12216,
			"type":"SCALAR"
		},
		{
			"bufferView":4,
			"componentType":5126,
			"count":4,
			"max":[
				1,
				0,
				1
			],
			"min":[
				-1,
				0,
				-1
			],
			"type":"VEC3"
		},
		{
			"bufferView":5,
			"componentType":5126,
			"count":4,
			"type":"VEC3"
		},
		{
			"bufferView":6,
			"componentType":5126,
			"count":4,
			"type":"VEC2"
		},
		{
			"bufferView":7,
			"componentType":5123,
			"count":6,
			"type":"SCALAR"
		}
	],
	"bufferViews":[
		{
			"buffer":0,
			"byteLength":71544,
			"byteOffset":0,
			"target":34962
		},
		{
			"buffer":0,
			"byteLength":71544,
			"byteOffset":71544,
			"target":34962
		},
		{
			"buffer":0,
			"byteLength":47696,
			"byteOffset":143088,
			"target":34962
		},
		{
			"buffer":0,
			"byteLength":24432,
			"byteOffset":190784,
			"target":34963
		},
		{
			"buffer":0,
			"byteLength":48,
			"byteOffset":215216,
			"target":34962
		},
		{
			"buffer":0,
			"byteLength":48,
			"byteOffset":215264,
			"target":34962
		},
		{
			"buffer":0,
			"byteLength":32,
			"byteOffset":215312,
			"target":34962
		},
		{
			"buffer":0,
			"byteLength":12,
			"byteOffset":215344,
			"target":34963
		}
	],
	"samplers":[
		{
			"magFilter":9729,
			"minFilter":9987
		}
	],
	"buffers":[
		{
			"byteLength":215356,
			"uri":"blacksheep-baked.bin"
		}
	]
}
